<svg version="1.1" xmlns="http://www.w3.org/2000/svg" viewBox="-266.2 -1508.325 10309.854641161824 2317.65"><desc>Created with Snap</desc><defs></defs><g><g transform="matrix(60.8326,0,0,60.8326,7972.3081,-1261.9896)"><title>element-design-layer-material-building-geometry</title><path d="M29,9a1,1,0,0,0-.526-.88l-13-7a1,1,0,0,0-.948,0l-13,7a1,1,0,0,0,0,1.76L5.463,12,1.526,14.12a1,1,0,0,0,0,1.76L5.463,18,1.526,20.12a1,1,0,0,0,0,1.76l13,7a1,1,0,0,0,.948,0l13-7a1,1,0,0,0,0-1.76L24.537,18l3.937-2.12a1,1,0,0,0,0-1.76L24.537,12l3.937-2.12A1,1,0,0,0,29,9ZM22.429,19.136,25.891,21,15,26.864,4.109,21l3.462-1.864,6.955,3.744a1,1,0,0,0,.948,0Zm0-6L25.891,15,15,20.864,4.109,15l3.462-1.864,6.955,3.744a1,1,0,0,0,.948,0ZM15,14.864,4.109,9,15,3.136,25.891,9Z" fill="#000000" style=""></path><desc>Created with Snap</desc><defs></defs></g><g><g transform="matrix(1,0,0,-1,0,0)"><path d="M132 9L132 -6L41 0Q51 110 53 368Q55 626 66 728Q100 725 246 723Q393 721 438 714L449 669Q404 661 269 650Q134 639 127 638Q128 615 131 544Q135 473 136 427Q170 423 260 415Q350 408 374 406L384 360Q173 341 137 340L137 323Q137 285 134 165Q132 46 132 9ZM535 432L515 483Q541 509 581 524Q621 540 660 540Q829 540 829 248Q829 208 824 130Q820 52 820 13Q812 -18 789 -18Q771 -18 756 0Q741 18 741 40Q741 47 742 50Q680 -10 610 -10Q557 -10 517 28Q478 67 478 122Q478 215 550 290Q623 365 715 365Q719 365 723 364Q727 364 732 363Q738 362 741 362Q733 479 648 479Q598 479 535 432ZM744 119Q746 189 746 225Q746 255 744 309L736 309Q665 308 606 256Q548 204 548 130Q548 98 567 79Q587 60 615 60Q659 60 744 119ZM1275 0L1183 2Q1146 39 1081 121Q1017 204 1000 223L1000 17Q991 -13 965 -13Q947 -13 930 1Q914 16 910 37Q913 140 913 379Q913 618 917 722L978 709Q979 669 981 545Q984 421 986 360L1229 538L1246 493Q1151 424 1023 298Q1050 269 1142 156Q1235 44 1275 0ZM1718 97L1728 53Q1684 37 1597 17Q1511 -2 1469 -2Q1426 -2 1394 26Q1362 55 1346 99Q1330 144 1322 187Q1315 231 1315 273Q1315 523 1541 523Q1595 523 1636 488Q1677 454 1677 399Q1677 369 1660 346Q1644 323 1620 309Q1597 296 1560 285Q1524 274 1496 269Q1468 264 1429 258Q1390 252 1375 249Q1376 220 1378 198Q1381 176 1388 150Q1396 125 1408 108Q1421 92 1443 81Q1465 70 1495 70Q1531 70 1583 76Q1635 83 1675 90Q1716 97 1718 97ZM1379 311Q1515 350 1602 393Q1595 426 1583 441Q1571 456 1547 456Q1486 456 1436 414Q1387 372 1379 311ZM2054 28L2067 720L2121 720L2448 99L2448 178Q2448 480 2459 721L2516 710Q2527 493 2534 -5Q2513 -14 2490 -14Q2456 -14 2419 6Q2358 100 2267 281Q2177 462 2139 529Q2140 461 2140 281Q2141 101 2144 8Q2135 -23 2109 -23Q2091 -23 2074 -8Q2058 7 2054 28ZM3019 97L3029 53Q2985 37 2898 17Q2812 -2 2770 -2Q2727 -2 2695 26Q2663 55 2647 99Q2631 144 2623 187Q2616 231 2616 273Q2616 523 2842 523Q2896 523 2937 488Q2978 454 2978 399Q2978 369 2961 346Q2945 323 2921 309Q2898 296 2861 285Q2825 274 2797 269Q2769 264 2730 258Q2691 252 2676 249Q2677 220 2679 198Q2682 176 2689 150Q2697 125 2709 108Q2722 92 2744 81Q2766 70 2796 70Q2832 70 2884 76Q2936 83 2976 90Q3017 97 3019 97ZM2680 311Q2816 350 2903 393Q2896 426 2884 441Q2872 456 2848 456Q2787 456 2737 414Q2688 372 2680 311ZM3558 518L3625 509Q3606 430 3565 268Q3524 107 3501 6Q3462 -1 3434 -1Q3409 -1 3388 3L3332 199L3284 2Q3245 -5 3216 -5Q3192 -5 3171 -1Q3156 51 3123 163Q3091 276 3068 359Q3046 442 3028 518L3094 513L3224 97Q3257 193 3293 334Q3262 449 3245 522L3311 517L3441 101Q3457 149 3475 209Q3493 269 3504 311Q3515 354 3533 422Q3551 491 3558 518ZM3973 482L3963 442Q3866 482 3812 482Q3764 482 3744 467Q3725 453 3725 406Q3725 368 3752 343Q3780 318 3819 303Q3858 289 3897 272Q3937 256 3964 224Q3992 192 3992 145Q3992 81 3945 33Q3898 -15 3823 -16Q3768 -16 3720 7Q3672 30 3644 65L3673 95Q3685 90 3708 79Q3732 68 3742 64Q3752 61 3771 57Q3791 53 3813 53Q3860 53 3890 74Q3920 95 3920 133Q3920 158 3906 175Q3892 193 3869 204Q3846 215 3818 225Q3791 235 3763 247Q3736 260 3713 277Q3690 295 3676 325Q3662 355 3662 396Q3662 456 3694 496Q3727 537 3786 537Q3809 537 3838 530Q3867 523 3884 517Q3901 511 3934 497Q3968 484 3973 482ZM4339 6L4342 728Q4564 726 4685 614Q4806 503 4806 288Q4806 219 4770 162Q4734 105 4677 71Q4621 37 4555 18Q4490 0 4426 0Q4386 0 4339 6ZM4414 67L4431 67Q4488 67 4541 80Q4594 94 4639 121Q4684 148 4711 195Q4738 243 4738 305Q4738 389 4687 475Q4637 562 4565 615Q4494 669 4433 669Q4420 669 4408 666Q4408 606 4414 67ZM5290 97L5300 53Q5256 37 5169 17Q5083 -2 5041 -2Q4998 -2 4966 26Q4934 55 4918 99Q4902 144 4894 187Q4887 231 4887 273Q4887 523 5113 523Q5167 523 5208 488Q5249 454 5249 399Q5249 369 5232 346Q5216 323 5192 309Q5169 296 5132 285Q5096 274 5068 269Q5040 264 5001 258Q4962 252 4947 249Q4948 220 4950 198Q4953 176 4960 150Q4968 125 4980 108Q4993 92 5015 81Q5037 70 5067 70Q5103 70 5155 76Q5207 83 5247 90Q5288 97 5290 97ZM4951 311Q5087 350 5174 393Q5167 426 5155 441Q5143 456 5119 456Q5058 456 5008 414Q4959 372 4951 311ZM5613 484L5624 439Q5597 437 5541 428Q5485 420 5457 418Q5462 383 5463 326Q5464 269 5465 227Q5467 186 5474 144Q5482 103 5505 81Q5529 59 5569 59Q5599 59 5644 73Q5663 36 5672 19Q5593 -9 5512 -9Q5482 -9 5460 9Q5438 27 5426 54Q5414 81 5406 122Q5399 164 5397 201Q5395 238 5395 286Q5395 312 5395 358Q5396 404 5396 421Q5386 420 5349 419Q5312 419 5306 419Q5299 486 5299 488Q5306 486 5322 486Q5331 486 5351 487Q5371 489 5381 489Q5385 489 5391 488Q5398 488 5400 488Q5404 598 5409 667L5454 656Q5455 632 5455 604Q5456 577 5456 543Q5457 510 5457 492Q5483 490 5535 488Q5587 486 5613 484ZM6115 97L6125 53Q6081 37 5994 17Q5908 -2 5866 -2Q5823 -2 5791 26Q5759 55 5743 99Q5727 144 5719 187Q5712 231 5712 273Q5712 523 5938 523Q5992 523 6033 488Q6074 454 6074 399Q6074 369 6057 346Q6041 323 6017 309Q5994 296 5957 285Q5921 274 5893 269Q5865 264 5826 258Q5787 252 5772 249Q5773 220 5775 198Q5778 176 5785 150Q5793 125 5805 108Q5818 92 5840 81Q5862 70 5892 70Q5928 70 5980 76Q6032 83 6072 90Q6113 97 6115 97ZM5776 311Q5912 350 5999 393Q5992 426 5980 441Q5968 456 5944 456Q5883 456 5833 414Q5784 372 5776 311ZM6502 496L6497 453Q6455 459 6425 459Q6356 459 6311 417Q6266 376 6249 319Q6233 263 6233 194Q6233 162 6237 137Q6241 112 6251 88Q6262 64 6284 50Q6307 37 6340 37Q6384 37 6452 54Q6473 62 6485 62Q6509 62 6514 6Q6426 -22 6351 -22Q6242 -22 6203 31Q6165 85 6165 205Q6165 275 6174 327Q6184 380 6208 425Q6232 471 6277 495Q6323 519 6389 519Q6463 519 6502 496ZM6838 484L6849 439Q6822 437 6766 428Q6710 420 6682 418Q6687 383 6688 326Q6689 269 6690 227Q6692 186 6699 144Q6707 103 6730 81Q6754 59 6794 59Q6824 59 6869 73Q6888 36 6897 19Q6818 -9 6737 -9Q6707 -9 6685 9Q6663 27 6651 54Q6639 81 6631 122Q6624 164 6622 201Q6620 238 6620 286Q6620 312 6620 358Q6621 404 6621 421Q6611 420 6574 419Q6537 419 6531 419Q6524 486 6524 488Q6531 486 6547 486Q6556 486 6576 487Q6596 489 6606 489Q6610 489 6616 488Q6623 488 6625 488Q6629 598 6634 667L6679 656Q6680 632 6680 604Q6681 577 6681 543Q6682 510 6682 492Q6708 490 6760 488Q6812 486 6838 484ZM6937 213Q6937 253 6945 302Q6954 351 6971 405Q6988 459 7022 495Q7056 531 7101 531Q7197 531 7255 444Q7313 358 7313 252Q7313 207 7303 162Q7294 118 7274 75Q7254 32 7216 3Q7179 -25 7129 -29Q7037 -17 6987 49Q6937 116 6937 213ZM7107 479Q7072 475 7048 415Q7024 355 7017 298Q7010 242 7010 199Q7010 143 7044 95Q7079 48 7122 48Q7153 48 7178 72Q7203 96 7217 131Q7232 167 7239 203Q7247 239 7247 267Q7247 349 7210 410Q7173 471 7107 479ZM7724 381L7680 384Q7659 440 7609 440Q7587 440 7562 430Q7538 420 7522 409Q7506 399 7480 379Q7480 365 7479 288Q7479 211 7480 117Q7482 23 7484 16Q7475 -14 7449 -14Q7431 -14 7414 0Q7398 15 7394 36Q7413 357 7428 521L7473 511L7476 444Q7546 502 7596 502Q7651 502 7688 477Q7726 452 7726 404Q7726 389 7724 381Z" fill="#000000" style=""></path></g></g></g></svg>